<?xml version="1.0" encoding="UTF-8" standalone="no"?>
<!DOCTYPE svg PUBLIC "-//W3C//DTD SVG 1.1//EN"
 "http://www.w3.org/Graphics/SVG/1.1/DTD/svg11.dtd">
<!-- Generated by graphviz version 2.43.0 (0)
 -->
<!-- Title: FinOps Framework — Structure &amp; Capabilities Pages: 1 -->
<svg width="1582pt" height="1925pt"
 viewBox="0.00 0.00 1582.30 1925.40" xmlns="http://www.w3.org/2000/svg" xmlns:xlink="http://www.w3.org/1999/xlink">
<g id="graph0" class="graph" transform="scale(1 1) rotate(0) translate(43.2 1882.2)">
<title>FinOps Framework — Structure &amp; Capabilities</title>
<polygon fill="white" stroke="transparent" points="-43.2,43.2 -43.2,-1882.2 1539.1,-1882.2 1539.1,43.2 -43.2,43.2"/>
<text text-anchor="middle" x="747.95" y="-1817.4" font-family="Helvetica,sans-Serif" font-size="22.00" fill="#2d3436">FinOps Framework — Structure &amp; Capabilities</text>
<g id="clust1" class="cluster">
<title>cluster_📊 &#160;UNDERSTAND — cloud usage &amp; cost</title>
<path fill="#e5f5fd" stroke="#aeb6be" d="M191,-837C191,-837 424,-837 424,-837 430,-837 436,-843 436,-849 436,-849 436,-1787 436,-1787 436,-1793 430,-1799 424,-1799 424,-1799 191,-1799 191,-1799 185,-1799 179,-1793 179,-1787 179,-1787 179,-849 179,-849 179,-843 185,-837 191,-837"/>
<text text-anchor="middle" x="307.5" y="-1785.4" font-family="Sans-Serif" font-size="12.00" fill="#2d3436">📊 &#160;UNDERSTAND — cloud usage &amp; cost</text>
</g>
<g id="clust2" class="cluster">
<title>cluster_💰 &#160;QUANTIFY — business value</title>
<path fill="#e5f5fd" stroke="#aeb6be" d="M1125,-823C1125,-823 1356,-823 1356,-823 1362,-823 1368,-829 1368,-835 1368,-835 1368,-1042 1368,-1042 1368,-1048 1362,-1054 1356,-1054 1356,-1054 1125,-1054 1125,-1054 1119,-1054 1113,-1048 1113,-1042 1113,-1042 1113,-835 1113,-835 1113,-829 1119,-823 1125,-823"/>
<text text-anchor="middle" x="1217.5" y="-1040.4" font-family="Sans-Serif" font-size="12.00" fill="#2d3436">💰 &#160;QUANTIFY — business value</text>
</g>
<g id="clust3" class="cluster">
<title>cluster_⚡ &#160;OPTIMIZE — usage &amp; cost</title>
<path fill="#e5f5fd" stroke="#aeb6be" d="M456,-823C456,-823 961,-823 961,-823 967,-823 973,-829 973,-835 973,-835 973,-1042 973,-1042 973,-1048 967,-1054 961,-1054 961,-1054 456,-1054 456,-1054 450,-1054 444,-1048 444,-1042 444,-1042 444,-835 444,-835 444,-829 450,-823 456,-823"/>
<text text-anchor="middle" x="538" y="-1040.4" font-family="Sans-Serif" font-size="12.00" fill="#2d3436">⚡ &#160;OPTIMIZE — usage &amp; cost</text>
</g>
<g id="clust4" class="cluster">
<title>cluster_🛠️ &#160;MANAGE — FinOps practice</title>
<path fill="#e5f5fd" stroke="#aeb6be" d="M671,-276C671,-276 902,-276 902,-276 908,-276 914,-282 914,-288 914,-288 914,-467 914,-467 914,-473 908,-479 902,-479 902,-479 671,-479 671,-479 665,-479 659,-473 659,-467 659,-467 659,-288 659,-288 659,-282 665,-276 671,-276"/>
<text text-anchor="middle" x="762" y="-465.4" font-family="Sans-Serif" font-size="12.00" fill="#2d3436">🛠️ &#160;MANAGE — FinOps practice</text>
</g>
<g id="clust5" class="cluster">
<title>cluster_🤝 &#160;EMBED — chargeback</title>
<path fill="#e5f5fd" stroke="#aeb6be" d="M1162,-1104C1162,-1104 1311,-1104 1311,-1104 1317,-1104 1323,-1110 1323,-1116 1323,-1116 1323,-1295 1323,-1295 1323,-1301 1317,-1307 1311,-1307 1311,-1307 1162,-1307 1162,-1307 1156,-1307 1150,-1301 1150,-1295 1150,-1295 1150,-1116 1150,-1116 1150,-1110 1156,-1104 1162,-1104"/>
<text text-anchor="middle" x="1236.5" y="-1293.4" font-family="Sans-Serif" font-size="12.00" fill="#2d3436">🤝 &#160;EMBED — chargeback</text>
</g>
<g id="clust6" class="cluster">
<title>cluster_Sinks</title>
<path fill="#e5f5fd" stroke="#aeb6be" d="M45,-8C45,-8 687,-8 687,-8 693,-8 699,-14 699,-20 699,-20 699,-227 699,-227 699,-233 693,-239 687,-239 687,-239 45,-239 45,-239 39,-239 33,-233 33,-227 33,-227 33,-20 33,-20 33,-14 39,-8 45,-8"/>
<text text-anchor="middle" x="56.5" y="-225.4" font-family="Sans-Serif" font-size="12.00" fill="#2d3436">Sinks</text>
</g>
<!-- 1acf553caa684ca2b5d58a5fc69e4270 -->
<g id="node1" class="node">
<title>1acf553caa684ca2b5d58a5fc69e4270</title>
<image xlink:href="/home/ivan/.local/lib/python3.12/site-packages/resources/aws/storage/simple-storage-service-s3.png" width="101px" height="101px" preserveAspectRatio="xMinYMin meet" x="188.5" y="-1737.5"/>
<text text-anchor="middle" x="239" y="-1620.4" font-family="Helvetica,sans-Serif" font-size="12.00" fill="#2d3436">cost&#45;data&#45;exports</text>
<text text-anchor="middle" x="239" y="-1607.4" font-family="Helvetica,sans-Serif" font-size="12.00" fill="#2d3436">CUR 2.0 + FOCUS 1.0</text>
</g>
<!-- 6066d7b4e23e44159f560bc5c379668f -->
<g id="node3" class="node">
<title>6066d7b4e23e44159f560bc5c379668f</title>
<image xlink:href="/home/ivan/.local/lib/python3.12/site-packages/resources/aws/analytics/glue.png" width="101px" height="101px" preserveAspectRatio="xMinYMin meet" x="188.5" y="-1485.5"/>
<text text-anchor="middle" x="239" y="-1368.4" font-family="Helvetica,sans-Serif" font-size="12.00" fill="#2d3436">Glue catalog +</text>
<text text-anchor="middle" x="239" y="-1355.4" font-family="Helvetica,sans-Serif" font-size="12.00" fill="#2d3436">crawler</text>
</g>
<!-- 1acf553caa684ca2b5d58a5fc69e4270&#45;&gt;6066d7b4e23e44159f560bc5c379668f -->
<g id="edge1" class="edge">
<title>1acf553caa684ca2b5d58a5fc69e4270&#45;&gt;6066d7b4e23e44159f560bc5c379668f</title>
<path fill="none" stroke="navy" d="M239,-1603.79C239,-1579.65 239,-1553.09 239,-1528.36"/>
<polygon fill="navy" stroke="navy" points="242.5,-1528.25 239,-1518.26 235.5,-1528.26 242.5,-1528.25"/>
<text text-anchor="middle" x="272.5" y="-1557.6" font-family="Sans-Serif" font-size="13.00" fill="#2d3436">CUR table</text>
</g>
<!-- ee1ef1cf8f504666a872562ae70ac6c6 -->
<g id="node2" class="node">
<title>ee1ef1cf8f504666a872562ae70ac6c6</title>
<image xlink:href="/home/ivan/.local/lib/python3.12/site-packages/resources/aws/analytics/athena.png" width="101px" height="101px" preserveAspectRatio="xMinYMin meet" x="188.5" y="-1245.5"/>
<text text-anchor="middle" x="239" y="-1128.4" font-family="Helvetica,sans-Serif" font-size="12.00" fill="#2d3436">Athena workgroup +</text>
<text text-anchor="middle" x="239" y="-1115.4" font-family="Helvetica,sans-Serif" font-size="12.00" fill="#2d3436">named queries</text>
</g>
<!-- 8d7ae21a45f04e4a833e73bf6f398622 -->
<g id="node4" class="node">
<title>8d7ae21a45f04e4a833e73bf6f398622</title>
<image xlink:href="/home/ivan/.local/lib/python3.12/site-packages/resources/aws/management/config.png" width="101px" height="101px" preserveAspectRatio="xMinYMin meet" x="188.5" y="-978.5"/>
<text text-anchor="middle" x="239" y="-861.4" font-family="Helvetica,sans-Serif" font-size="12.00" fill="#2d3436">tag&#45;governance</text>
<text text-anchor="middle" x="239" y="-848.4" font-family="Helvetica,sans-Serif" font-size="12.00" fill="#2d3436">required tags + drift</text>
</g>
<!-- ee1ef1cf8f504666a872562ae70ac6c6&#45;&gt;8d7ae21a45f04e4a833e73bf6f398622 -->
<g id="edge5" class="edge">
<title>ee1ef1cf8f504666a872562ae70ac6c6&#45;&gt;8d7ae21a45f04e4a833e73bf6f398622</title>
<path fill="none" stroke="navy" d="M239,-1111.97C239,-1083.28 239,-1050.87 239,-1021.4"/>
<polygon fill="navy" stroke="navy" points="242.5,-1021.1 239,-1011.1 235.5,-1021.1 242.5,-1021.1"/>
<text text-anchor="middle" x="252.5" y="-1065.6" font-family="Sans-Serif" font-size="13.00" fill="#2d3436">SQL</text>
</g>
<!-- 914a10b67ae14c579d9681ecdd4ab7e8 -->
<g id="node7" class="node">
<title>914a10b67ae14c579d9681ecdd4ab7e8</title>
<image xlink:href="/home/ivan/.local/lib/python3.12/site-packages/resources/aws/management/cloudwatch.png" width="101px" height="101px" preserveAspectRatio="xMinYMin meet" x="1258.5" y="-978.5"/>
<text text-anchor="middle" x="1309" y="-860.4" font-family="Helvetica,sans-Serif" font-size="12.00" fill="#2d3436">finops&#45;metrics</text>
<text text-anchor="middle" x="1309" y="-847.4" font-family="Helvetica,sans-Serif" font-size="12.00" fill="#2d3436">allocation% • coverage%</text>
<text text-anchor="middle" x="1309" y="-834.4" font-family="Helvetica,sans-Serif" font-size="12.00" fill="#2d3436">utilization% • forecast</text>
</g>
<!-- ee1ef1cf8f504666a872562ae70ac6c6&#45;&gt;914a10b67ae14c579d9681ecdd4ab7e8 -->
<g id="edge3" class="edge">
<title>ee1ef1cf8f504666a872562ae70ac6c6&#45;&gt;914a10b67ae14c579d9681ecdd4ab7e8</title>
<path fill="none" stroke="navy" d="M289.64,-1188.18C492.15,-1164.9 1233.09,-1079.5 1238,-1076 1253.09,-1065.24 1265.11,-1050.39 1274.63,-1034.24"/>
<polygon fill="navy" stroke="navy" points="1277.88,-1035.59 1279.67,-1025.15 1271.76,-1032.2 1277.88,-1035.59"/>
<text text-anchor="middle" x="1264.5" y="-1065.6" font-family="Sans-Serif" font-size="13.00" fill="#2d3436">SQL</text>
</g>
<!-- 3315bfbe055f4284a63141db6de6b724 -->
<g id="node8" class="node">
<title>3315bfbe055f4284a63141db6de6b724</title>
<image xlink:href="/home/ivan/.local/lib/python3.12/site-packages/resources/aws/compute/lambda.png" width="101px" height="101px" preserveAspectRatio="xMinYMin meet" x="452.5" y="-978.5"/>
<text text-anchor="middle" x="503" y="-860.4" font-family="Helvetica,sans-Serif" font-size="12.00" fill="#2d3436">idle&#45;resource&#45;cleanup</text>
<text text-anchor="middle" x="503" y="-847.4" font-family="Helvetica,sans-Serif" font-size="12.00" fill="#2d3436">EBS • EIP • Snapshot</text>
<text text-anchor="middle" x="503" y="-834.4" font-family="Helvetica,sans-Serif" font-size="12.00" fill="#2d3436">NAT • ENI • LB</text>
</g>
<!-- ee1ef1cf8f504666a872562ae70ac6c6&#45;&gt;3315bfbe055f4284a63141db6de6b724 -->
<g id="edge4" class="edge">
<title>ee1ef1cf8f504666a872562ae70ac6c6&#45;&gt;3315bfbe055f4284a63141db6de6b724</title>
<path fill="none" stroke="navy" d="M289.63,-1169.67C335.24,-1145.63 401.61,-1105.08 445,-1054 450.23,-1047.85 455.08,-1041.14 459.58,-1034.14"/>
<polygon fill="navy" stroke="navy" points="462.85,-1035.49 465.08,-1025.13 456.88,-1031.84 462.85,-1035.49"/>
<text text-anchor="middle" x="449.5" y="-1065.6" font-family="Sans-Serif" font-size="13.00" fill="#2d3436">SQL</text>
</g>
<!-- f776fbce8fea45e48fb96145da1a36e3 -->
<g id="node20" class="node">
<title>f776fbce8fea45e48fb96145da1a36e3</title>
<image xlink:href="/home/ivan/.local/lib/python3.12/site-packages/resources/onprem/client/users.png" width="101px" height="101px" preserveAspectRatio="xMinYMin meet" x="41.5" y="-163.5"/>
<text text-anchor="middle" x="92" y="-45.4" font-family="Helvetica,sans-Serif" font-size="12.00" fill="#2d3436">BI tool</text>
<text text-anchor="middle" x="92" y="-32.4" font-family="Helvetica,sans-Serif" font-size="12.00" fill="#2d3436">(QuickSight /</text>
<text text-anchor="middle" x="92" y="-19.4" font-family="Helvetica,sans-Serif" font-size="12.00" fill="#2d3436">PowerBI / Looker)</text>
</g>
<!-- ee1ef1cf8f504666a872562ae70ac6c6&#45;&gt;f776fbce8fea45e48fb96145da1a36e3 -->
<g id="edge6" class="edge">
<title>ee1ef1cf8f504666a872562ae70ac6c6&#45;&gt;f776fbce8fea45e48fb96145da1a36e3</title>
<path fill="none" stroke="navy" stroke-dasharray="5,2" d="M188.31,-1167.29C118.16,-1126.23 0,-1040.52 0,-929 0,-929 0,-929 0,-366 0,-313.93 17.55,-259.28 37.31,-214.23"/>
<polygon fill="navy" stroke="navy" points="40.53,-215.62 41.42,-205.06 34.14,-212.75 40.53,-215.62"/>
<text text-anchor="middle" x="19" y="-630.6" font-family="Sans-Serif" font-size="13.00" fill="#2d3436">query</text>
</g>
<!-- 6066d7b4e23e44159f560bc5c379668f&#45;&gt;ee1ef1cf8f504666a872562ae70ac6c6 -->
<g id="edge2" class="edge">
<title>6066d7b4e23e44159f560bc5c379668f&#45;&gt;ee1ef1cf8f504666a872562ae70ac6c6</title>
<path fill="none" stroke="navy" d="M239,-1351.76C239,-1331.32 239,-1309.28 239,-1288.39"/>
<polygon fill="navy" stroke="navy" points="242.5,-1288.24 239,-1278.24 235.5,-1288.24 242.5,-1288.24"/>
</g>
<!-- 3fa258ebe45f4c18904b7753c7ce3bc6 -->
<g id="node15" class="node">
<title>3fa258ebe45f4c18904b7753c7ce3bc6</title>
<image xlink:href="/home/ivan/.local/lib/python3.12/site-packages/resources/aws/integration/simple-notification-service-sns.png" width="101px" height="101px" preserveAspectRatio="xMinYMin meet" x="804.5" y="-684.5"/>
<text text-anchor="middle" x="855" y="-566.4" font-family="Helvetica,sans-Serif" font-size="12.00" fill="#2d3436">EVENTS BUS</text>
<text text-anchor="middle" x="855" y="-553.4" font-family="Helvetica,sans-Serif" font-size="12.00" fill="#2d3436">SNS topic</text>
<text text-anchor="middle" x="855" y="-540.4" font-family="Helvetica,sans-Serif" font-size="12.00" fill="#2d3436">(KMS&#45;encrypted)</text>
</g>
<!-- 8d7ae21a45f04e4a833e73bf6f398622&#45;&gt;3fa258ebe45f4c18904b7753c7ce3bc6 -->
<g id="edge11" class="edge">
<title>8d7ae21a45f04e4a833e73bf6f398622&#45;&gt;3fa258ebe45f4c18904b7753c7ce3bc6</title>
<path fill="none" stroke="firebrick" d="M289.84,-860.96C317.95,-828.48 355.38,-791.21 396,-767 525.58,-689.77 702.8,-655.65 794.5,-642.36"/>
<polygon fill="firebrick" stroke="firebrick" points="795.04,-645.82 804.45,-640.95 794.06,-638.89 795.04,-645.82"/>
<text text-anchor="middle" x="457" y="-784.6" font-family="Sans-Serif" font-size="13.00" fill="#2d3436">non&#45;compliance +</text>
<text text-anchor="middle" x="457" y="-770.6" font-family="Sans-Serif" font-size="13.00" fill="#2d3436">drift</text>
</g>
<!-- c8e06f7f044c4402907a4a3dbcbf0aa4 -->
<g id="node18" class="node">
<title>c8e06f7f044c4402907a4a3dbcbf0aa4</title>
<image xlink:href="/home/ivan/.local/lib/python3.12/site-packages/resources/aws/management/cloudwatch.png" width="101px" height="101px" preserveAspectRatio="xMinYMin meet" x="315.5" y="-163.5"/>
<text text-anchor="middle" x="366" y="-46.4" font-family="Helvetica,sans-Serif" font-size="12.00" fill="#2d3436">CloudWatch</text>
<text text-anchor="middle" x="366" y="-33.4" font-family="Helvetica,sans-Serif" font-size="12.00" fill="#2d3436">dashboards</text>
</g>
<!-- 8d7ae21a45f04e4a833e73bf6f398622&#45;&gt;c8e06f7f044c4402907a4a3dbcbf0aa4 -->
<g id="edge21" class="edge">
<title>8d7ae21a45f04e4a833e73bf6f398622&#45;&gt;c8e06f7f044c4402907a4a3dbcbf0aa4</title>
<path fill="none" stroke="gray" stroke-dasharray="5,2" d="M220.28,-844.98C217.25,-828.52 214.59,-811.27 213,-795 189.09,-549.9 202.98,-475.43 295,-247 300.58,-233.16 307.19,-218.89 314.1,-205.06"/>
<polygon fill="gray" stroke="gray" points="317.27,-206.55 318.68,-196.05 311.03,-203.38 317.27,-206.55"/>
</g>
<!-- 66efd86897224bc593ec474162191053 -->
<g id="node19" class="node">
<title>66efd86897224bc593ec474162191053</title>
<image xlink:href="/home/ivan/.local/lib/python3.12/site-packages/resources/aws/management/systems-manager-parameter-store.png" width="101px" height="101px" preserveAspectRatio="xMinYMin meet" x="178.5" y="-163.5"/>
<text text-anchor="middle" x="229" y="-46.4" font-family="Helvetica,sans-Serif" font-size="12.00" fill="#2d3436">SSM Parameter Store</text>
<text text-anchor="middle" x="229" y="-33.4" font-family="Helvetica,sans-Serif" font-size="12.00" fill="#2d3436">(cross&#45;workspace KPI mirror)</text>
</g>
<!-- 8d7ae21a45f04e4a833e73bf6f398622&#45;&gt;66efd86897224bc593ec474162191053 -->
<g id="edge24" class="edge">
<title>8d7ae21a45f04e4a833e73bf6f398622&#45;&gt;66efd86897224bc593ec474162191053</title>
<path fill="none" stroke="gray" stroke-dasharray="5,2" d="M188.35,-876.42C168.95,-853.57 149.07,-824.98 139,-795 65.53,-576.35 80.12,-499.03 139,-276 143.83,-257.72 150.76,-255.5 160,-239 166.17,-227.97 172.63,-216.37 179,-204.87"/>
<polygon fill="gray" stroke="gray" points="182.07,-206.55 183.86,-196.11 175.95,-203.16 182.07,-206.55"/>
</g>
<!-- 426ed81b33fb4edf9967ef443200cdaa -->
<g id="node5" class="node">
<title>426ed81b33fb4edf9967ef443200cdaa</title>
<image xlink:href="/home/ivan/.local/lib/python3.12/site-packages/resources/aws/cost/cost-explorer.png" width="101px" height="101px" preserveAspectRatio="xMinYMin meet" x="326.5" y="-1737.5"/>
<text text-anchor="middle" x="377" y="-1621.9" font-family="Helvetica,sans-Serif" font-size="12.00" fill="#2d3436">anomaly&#45;detection</text>
</g>
<!-- 426ed81b33fb4edf9967ef443200cdaa&#45;&gt;3fa258ebe45f4c18904b7753c7ce3bc6 -->
<g id="edge10" class="edge">
<title>426ed81b33fb4edf9967ef443200cdaa&#45;&gt;3fa258ebe45f4c18904b7753c7ce3bc6</title>
<path fill="none" stroke="firebrick" d="M427.66,-1678.85C586.78,-1654.99 1066,-1571.84 1066,-1436 1066,-1436 1066,-1436 1066,-927 1066,-852.5 1057.66,-828.76 1016,-767 989.63,-727.91 948.33,-694.39 914.17,-670.9"/>
<polygon fill="firebrick" stroke="firebrick" points="915.89,-667.85 905.65,-665.15 911.98,-673.65 915.89,-667.85"/>
<text text-anchor="middle" x="1095" y="-1191.6" font-family="Sans-Serif" font-size="13.00" fill="#2d3436">anomaly</text>
</g>
<!-- 9f15f20e7538404b9b04c03bb5fc0c57 -->
<g id="node6" class="node">
<title>9f15f20e7538404b9b04c03bb5fc0c57</title>
<image xlink:href="/home/ivan/.local/lib/python3.12/site-packages/resources/aws/cost/budgets.png" width="101px" height="101px" preserveAspectRatio="xMinYMin meet" x="1121.5" y="-978.5"/>
<text text-anchor="middle" x="1172" y="-860.4" font-family="Helvetica,sans-Serif" font-size="12.00" fill="#2d3436">budgets</text>
<text text-anchor="middle" x="1172" y="-847.4" font-family="Helvetica,sans-Serif" font-size="12.00" fill="#2d3436">account / service /</text>
<text text-anchor="middle" x="1172" y="-834.4" font-family="Helvetica,sans-Serif" font-size="12.00" fill="#2d3436">tag / cost_category</text>
</g>
<!-- 9f15f20e7538404b9b04c03bb5fc0c57&#45;&gt;3fa258ebe45f4c18904b7753c7ce3bc6 -->
<g id="edge9" class="edge">
<title>9f15f20e7538404b9b04c03bb5fc0c57&#45;&gt;3fa258ebe45f4c18904b7753c7ce3bc6</title>
<path fill="none" stroke="firebrick" d="M1131.6,-830.98C1119.17,-808.31 1103.94,-785.41 1086,-767 1037.4,-717.12 965.91,-680.2 915.36,-658.29"/>
<polygon fill="firebrick" stroke="firebrick" points="916.43,-654.94 905.86,-654.24 913.68,-661.38 916.43,-654.94"/>
<text text-anchor="middle" x="1164.5" y="-777.6" font-family="Sans-Serif" font-size="13.00" fill="#2d3436">threshold breach</text>
</g>
<!-- 914a10b67ae14c579d9681ecdd4ab7e8&#45;&gt;3fa258ebe45f4c18904b7753c7ce3bc6 -->
<g id="edge15" class="edge">
<title>914a10b67ae14c579d9681ecdd4ab7e8&#45;&gt;3fa258ebe45f4c18904b7753c7ce3bc6</title>
<path fill="none" stroke="firebrick" d="M1276.31,-830.75C1264.67,-807.42 1249.47,-784.26 1230,-767 1139.24,-686.54 996.37,-654.34 915.71,-642.06"/>
<polygon fill="firebrick" stroke="firebrick" points="916.11,-638.58 905.71,-640.59 915.1,-645.51 916.11,-638.58"/>
<text text-anchor="middle" x="1295.5" y="-784.6" font-family="Sans-Serif" font-size="13.00" fill="#2d3436">KPI threshold</text>
<text text-anchor="middle" x="1295.5" y="-770.6" font-family="Sans-Serif" font-size="13.00" fill="#2d3436">alarms</text>
</g>
<!-- 914a10b67ae14c579d9681ecdd4ab7e8&#45;&gt;c8e06f7f044c4402907a4a3dbcbf0aa4 -->
<g id="edge20" class="edge">
<title>914a10b67ae14c579d9681ecdd4ab7e8&#45;&gt;c8e06f7f044c4402907a4a3dbcbf0aa4</title>
<path fill="none" stroke="gray" stroke-dasharray="5,2" d="M1359.57,-877.83C1379.69,-854.8 1400.52,-825.7 1411,-795 1489.75,-564.3 1563.43,-416.26 1388,-247 1368.95,-228.62 457.74,-252.55 435,-239 421.07,-230.7 409.75,-218.48 400.62,-204.88"/>
<polygon fill="gray" stroke="gray" points="403.5,-202.87 395.22,-196.26 397.56,-206.59 403.5,-202.87"/>
</g>
<!-- 914a10b67ae14c579d9681ecdd4ab7e8&#45;&gt;66efd86897224bc593ec474162191053 -->
<g id="edge23" class="edge">
<title>914a10b67ae14c579d9681ecdd4ab7e8&#45;&gt;66efd86897224bc593ec474162191053</title>
<path fill="none" stroke="gray" stroke-dasharray="5,2" d="M1351.07,-830.71C1355.24,-809.44 1355.54,-787.23 1348,-767 1247.21,-496.55 1181.84,-403.67 923,-276 798.22,-214.45 415.67,-313.23 298,-239 284.46,-230.46 273.36,-218.27 264.33,-204.81"/>
<polygon fill="gray" stroke="gray" points="267.26,-202.9 258.97,-196.3 261.33,-206.62 267.26,-202.9"/>
</g>
<!-- 3315bfbe055f4284a63141db6de6b724&#45;&gt;3fa258ebe45f4c18904b7753c7ce3bc6 -->
<g id="edge12" class="edge">
<title>3315bfbe055f4284a63141db6de6b724&#45;&gt;3fa258ebe45f4c18904b7753c7ce3bc6</title>
<path fill="none" stroke="firebrick" d="M513.38,-830.85C519.64,-807.92 529.51,-784.93 545,-767 609.6,-692.22 723.94,-658.65 794.24,-644.47"/>
<polygon fill="firebrick" stroke="firebrick" points="795.14,-647.86 804.28,-642.51 793.8,-640.99 795.14,-647.86"/>
<text text-anchor="middle" x="588.5" y="-784.6" font-family="Sans-Serif" font-size="13.00" fill="#2d3436">digests +</text>
<text text-anchor="middle" x="588.5" y="-770.6" font-family="Sans-Serif" font-size="13.00" fill="#2d3436">aging alarms</text>
</g>
<!-- 3315bfbe055f4284a63141db6de6b724&#45;&gt;c8e06f7f044c4402907a4a3dbcbf0aa4 -->
<g id="edge22" class="edge">
<title>3315bfbe055f4284a63141db6de6b724&#45;&gt;c8e06f7f044c4402907a4a3dbcbf0aa4</title>
<path fill="none" stroke="gray" stroke-dasharray="5,2" d="M453.78,-830.96C450.99,-828.13 448.06,-825.46 445,-823 411.36,-795.95 377.75,-829.64 352,-795 222.79,-621.16 285.64,-347.46 331.87,-205.79"/>
<polygon fill="gray" stroke="gray" points="335.21,-206.83 335.03,-196.24 328.56,-204.63 335.21,-206.83"/>
</g>
<!-- 3315bfbe055f4284a63141db6de6b724&#45;&gt;66efd86897224bc593ec474162191053 -->
<g id="edge25" class="edge">
<title>3315bfbe055f4284a63141db6de6b724&#45;&gt;66efd86897224bc593ec474162191053</title>
<path fill="none" stroke="gray" stroke-dasharray="5,2" d="M453.98,-830.71C451.13,-827.95 448.14,-825.36 445,-823 401.26,-790.05 372.32,-822.57 325,-795 291.57,-775.52 281.15,-766.6 266,-731 226.88,-639.06 225.09,-354.39 227.03,-206.04"/>
<polygon fill="gray" stroke="gray" points="230.53,-206.08 227.17,-196.03 223.53,-205.98 230.53,-206.08"/>
</g>
<!-- 888c2077b14b453c94d83c21f763cb54 -->
<g id="node9" class="node">
<title>888c2077b14b453c94d83c21f763cb54</title>
<image xlink:href="/home/ivan/.local/lib/python3.12/site-packages/resources/aws/compute/lambda.png" width="101px" height="101px" preserveAspectRatio="xMinYMin meet" x="589.5" y="-978.5"/>
<text text-anchor="middle" x="640" y="-861.4" font-family="Helvetica,sans-Serif" font-size="12.00" fill="#2d3436">instance&#45;scheduler</text>
<text text-anchor="middle" x="640" y="-848.4" font-family="Helvetica,sans-Serif" font-size="12.00" fill="#2d3436">tag&#45;driven</text>
</g>
<!-- 888c2077b14b453c94d83c21f763cb54&#45;&gt;3fa258ebe45f4c18904b7753c7ce3bc6 -->
<g id="edge13" class="edge">
<title>888c2077b14b453c94d83c21f763cb54&#45;&gt;3fa258ebe45f4c18904b7753c7ce3bc6</title>
<path fill="none" stroke="firebrick" d="M633.46,-844.97C634.82,-818.52 640.2,-790.1 654,-767 685.65,-714.02 747.76,-678.22 794.61,-657.41"/>
<polygon fill="firebrick" stroke="firebrick" points="796.27,-660.51 804.06,-653.33 793.49,-654.08 796.27,-660.51"/>
<text text-anchor="middle" x="710.5" y="-777.6" font-family="Sans-Serif" font-size="13.00" fill="#2d3436">start/stop events</text>
</g>
<!-- 12ecc139a1164a64b8e1791c4b097984 -->
<g id="node10" class="node">
<title>12ecc139a1164a64b8e1791c4b097984</title>
<image xlink:href="/home/ivan/.local/lib/python3.12/site-packages/resources/aws/cost/reserved-instance-reporting.png" width="101px" height="101px" preserveAspectRatio="xMinYMin meet" x="726.5" y="-978.5"/>
<text text-anchor="middle" x="777" y="-862.9" font-family="Helvetica,sans-Serif" font-size="12.00" fill="#2d3436">savings&#45;coverage&#45;reporter</text>
</g>
<!-- 12ecc139a1164a64b8e1791c4b097984&#45;&gt;3fa258ebe45f4c18904b7753c7ce3bc6 -->
<g id="edge14" class="edge">
<title>12ecc139a1164a64b8e1791c4b097984&#45;&gt;3fa258ebe45f4c18904b7753c7ce3bc6</title>
<path fill="none" stroke="firebrick" d="M772.12,-859.39C771.82,-830.47 773.86,-796.61 782,-767 786.22,-751.63 792.57,-736.11 799.78,-721.37"/>
<polygon fill="firebrick" stroke="firebrick" points="802.98,-722.81 804.37,-712.31 796.73,-719.65 802.98,-722.81"/>
<text text-anchor="middle" x="827.5" y="-777.6" font-family="Sans-Serif" font-size="13.00" fill="#2d3436">weekly report</text>
</g>
<!-- 318e0a5b8b72455f9921849f4fa86db5 -->
<g id="node11" class="node">
<title>318e0a5b8b72455f9921849f4fa86db5</title>
<image xlink:href="/home/ivan/.local/lib/python3.12/site-packages/resources/aws/cost/cost-explorer.png" width="101px" height="101px" preserveAspectRatio="xMinYMin meet" x="863.5" y="-978.5"/>
<text text-anchor="middle" x="914" y="-860.4" font-family="Helvetica,sans-Serif" font-size="12.00" fill="#2d3436">optimization&#45;services</text>
<text text-anchor="middle" x="914" y="-847.4" font-family="Helvetica,sans-Serif" font-size="12.00" fill="#2d3436">Compute Optimizer +</text>
<text text-anchor="middle" x="914" y="-834.4" font-family="Helvetica,sans-Serif" font-size="12.00" fill="#2d3436">Cost Optimization Hub</text>
</g>
<!-- 318e0a5b8b72455f9921849f4fa86db5&#45;&gt;3fa258ebe45f4c18904b7753c7ce3bc6 -->
<g id="edge16" class="edge">
<title>318e0a5b8b72455f9921849f4fa86db5&#45;&gt;3fa258ebe45f4c18904b7753c7ce3bc6</title>
<path fill="none" stroke="firebrick" stroke-dasharray="5,2" d="M894.6,-830.98C888.78,-802.16 882.35,-770.38 876.41,-740.96"/>
<polygon fill="firebrick" stroke="firebrick" points="879.82,-740.18 874.41,-731.07 872.96,-741.57 879.82,-740.18"/>
<text text-anchor="middle" x="946.5" y="-777.6" font-family="Sans-Serif" font-size="13.00" fill="#2d3436">recommendations</text>
</g>
<!-- 37da5f2cf1734060b4a81c4d0bb303ff -->
<g id="node12" class="node">
<title>37da5f2cf1734060b4a81c4d0bb303ff</title>
<image xlink:href="/home/ivan/.local/lib/python3.12/site-packages/resources/aws/integration/simple-notification-service-sns.png" width="101px" height="101px" preserveAspectRatio="xMinYMin meet" x="804.5" y="-417.5"/>
<text text-anchor="middle" x="855" y="-300.4" font-family="Helvetica,sans-Serif" font-size="12.00" fill="#2d3436">alerting</text>
<text text-anchor="middle" x="855" y="-287.4" font-family="Helvetica,sans-Serif" font-size="12.00" fill="#2d3436">chat&#45;notifier Lambda</text>
</g>
<!-- 90da3ff3dcaa48a1adfde7dce6d75027 -->
<g id="node16" class="node">
<title>90da3ff3dcaa48a1adfde7dce6d75027</title>
<image xlink:href="/home/ivan/.local/lib/python3.12/site-packages/resources/onprem/client/users.png" width="101px" height="101px" preserveAspectRatio="xMinYMin meet" x="589.5" y="-163.5"/>
<text text-anchor="middle" x="640" y="-47.9" font-family="Helvetica,sans-Serif" font-size="12.00" fill="#2d3436">Email subs</text>
</g>
<!-- 37da5f2cf1734060b4a81c4d0bb303ff&#45;&gt;90da3ff3dcaa48a1adfde7dce6d75027 -->
<g id="edge18" class="edge">
<title>37da5f2cf1734060b4a81c4d0bb303ff&#45;&gt;90da3ff3dcaa48a1adfde7dce6d75027</title>
<path fill="none" stroke="#7b8894" d="M804.4,-297.68C798.63,-290.29 792.75,-282.94 787,-276 758.52,-241.63 725.2,-204.67 697.49,-174.74"/>
<polygon fill="#7b8894" stroke="#7b8894" points="699.95,-172.24 690.58,-167.29 694.82,-177 699.95,-172.24"/>
</g>
<!-- 267b6826192d402cbe1c4d02ab55785d -->
<g id="node17" class="node">
<title>267b6826192d402cbe1c4d02ab55785d</title>
<image xlink:href="/home/ivan/.local/lib/python3.12/site-packages/resources/onprem/client/users.png" width="101px" height="101px" preserveAspectRatio="xMinYMin meet" x="452.5" y="-163.5"/>
<text text-anchor="middle" x="503" y="-47.9" font-family="Helvetica,sans-Serif" font-size="12.00" fill="#2d3436">Slack / Teams</text>
</g>
<!-- 37da5f2cf1734060b4a81c4d0bb303ff&#45;&gt;267b6826192d402cbe1c4d02ab55785d -->
<g id="edge19" class="edge">
<title>37da5f2cf1734060b4a81c4d0bb303ff&#45;&gt;267b6826192d402cbe1c4d02ab55785d</title>
<path fill="none" stroke="#7b8894" d="M804.44,-289.37C799.01,-284.33 793.19,-279.77 787,-276 704.19,-225.56 651,-295.21 572,-239 554.9,-226.84 541.57,-209.05 531.38,-190.69"/>
<polygon fill="#7b8894" stroke="#7b8894" points="534.38,-188.87 526.62,-181.65 528.18,-192.13 534.38,-188.87"/>
</g>
<!-- 2e5583374e97427e94bf4bbcecbde8b2 -->
<g id="node13" class="node">
<title>2e5583374e97427e94bf4bbcecbde8b2</title>
<image xlink:href="/home/ivan/.local/lib/python3.12/site-packages/resources/aws/security/identity-and-access-management-iam.png" width="101px" height="101px" preserveAspectRatio="xMinYMin meet" x="667.5" y="-417.5"/>
<text text-anchor="middle" x="718" y="-300.4" font-family="Helvetica,sans-Serif" font-size="12.00" fill="#2d3436">tag&#45;governance</text>
<text text-anchor="middle" x="718" y="-287.4" font-family="Helvetica,sans-Serif" font-size="12.00" fill="#2d3436">policy guardrails</text>
</g>
<!-- ebc9a587f84d4d2891eee3a759a5035d -->
<g id="node14" class="node">
<title>ebc9a587f84d4d2891eee3a759a5035d</title>
<image xlink:href="/home/ivan/.local/lib/python3.12/site-packages/resources/aws/cost/cost-explorer.png" width="101px" height="101px" preserveAspectRatio="xMinYMin meet" x="1177.5" y="-1245.5"/>
<text text-anchor="middle" x="1228" y="-1128.4" font-family="Helvetica,sans-Serif" font-size="12.00" fill="#2d3436">cost&#45;categories</text>
<text text-anchor="middle" x="1228" y="-1115.4" font-family="Helvetica,sans-Serif" font-size="12.00" fill="#2d3436">allocation as code</text>
</g>
<!-- ebc9a587f84d4d2891eee3a759a5035d&#45;&gt;9f15f20e7538404b9b04c03bb5fc0c57 -->
<g id="edge8" class="edge">
<title>ebc9a587f84d4d2891eee3a759a5035d&#45;&gt;9f15f20e7538404b9b04c03bb5fc0c57</title>
<path fill="none" stroke="navy" d="M1177.36,-1136.91C1164.22,-1118.69 1151.84,-1097.61 1145,-1076 1140.87,-1062.96 1139.59,-1049.06 1140.16,-1035.2"/>
<polygon fill="navy" stroke="navy" points="1143.65,-1035.36 1140.88,-1025.14 1136.67,-1034.86 1143.65,-1035.36"/>
<text text-anchor="middle" x="1189" y="-1065.6" font-family="Sans-Serif" font-size="13.00" fill="#2d3436">category dim</text>
</g>
<!-- ebc9a587f84d4d2891eee3a759a5035d&#45;&gt;914a10b67ae14c579d9681ecdd4ab7e8 -->
<g id="edge7" class="edge">
<title>ebc9a587f84d4d2891eee3a759a5035d&#45;&gt;914a10b67ae14c579d9681ecdd4ab7e8</title>
<path fill="none" stroke="navy" d="M1278.61,-1131.52C1289.73,-1114.47 1299.97,-1095.34 1306,-1076 1310.04,-1063.06 1312.53,-1049.16 1313.94,-1035.26"/>
<polygon fill="navy" stroke="navy" points="1317.44,-1035.4 1314.78,-1025.15 1310.46,-1034.82 1317.44,-1035.4"/>
<text text-anchor="middle" x="1353" y="-1065.6" font-family="Sans-Serif" font-size="13.00" fill="#2d3436">category dim</text>
</g>
<!-- 3fa258ebe45f4c18904b7753c7ce3bc6&#45;&gt;37da5f2cf1734060b4a81c4d0bb303ff -->
<g id="edge17" class="edge">
<title>3fa258ebe45f4c18904b7753c7ce3bc6&#45;&gt;37da5f2cf1734060b4a81c4d0bb303ff</title>
<path fill="none" stroke="darkgreen" d="M855,-536.95C855,-511.96 855,-485.09 855,-460.29"/>
<polygon fill="darkgreen" stroke="darkgreen" points="858.5,-460.17 855,-450.17 851.5,-460.17 858.5,-460.17"/>
<text text-anchor="middle" x="878" y="-490.6" font-family="Sans-Serif" font-size="13.00" fill="#2d3436">deliver</text>
</g>
</g>
</svg>
